<?xml version="1.0" encoding="utf-8"?>
<!-- Generator: Adobe Illustrator 27.0.0, SVG Export Plug-In . SVG Version: 6.00 Build 0)  -->
<svg version="1.1" id="Layer_1" xmlns="http://www.w3.org/2000/svg" xmlns:xlink="http://www.w3.org/1999/xlink" x="0px" y="0px"
	 viewBox="0 0 295.6 90" style="enable-background:new 0 0 295.6 90;" xml:space="preserve">
<style type="text/css">
	.st0{fill:#171717;}
	.st1{fill:none;}
	.st2{fill:#F04A23;}
</style>
<g>
	<path class="st0" d="M68.84,30.7h11.2v28.6h-11.2V30.7z"/>
	<path class="st0" d="M82.09,30.7h14.03l3.03,13.79h0.82L103,30.7h14.03v28.6h-10.66v-9.64h-0.85l-1.87,9.64h-8.17l-1.87-9.64h-0.85
		v9.64H82.09V30.7z"/>
	<path class="st0" d="M141.54,56.2h-11l-0.95,3.1h-11.54l10.15-28.6h15.66l10.15,28.6h-11.54L141.54,56.2z M139.06,48l-2.08-6.84
		h-1.87L133.03,48H139.06z"/>
	<path class="st0" d="M183.7,59.3h-5.58l-0.17-3.27h-0.2c-2.04,2.45-5.52,4.22-10.35,4.22c-8.85,0-15.7-5.99-15.7-15.26
		c0-9.3,6.4-15.26,16.72-15.26c7.15,0,14.51,3.51,15.36,11.54h-11.1c-0.24-0.65-1.63-1.91-3.98-1.91c-3.51,0-5.86,2.08-5.86,5.62
		c0,3.54,2.45,5.62,5.48,5.62c0.51,0,3.64,0.14,4.63-2.49h-4.94v-5.11h15.7V59.3z"/>
	<path class="st0" d="M185.92,30.7h26.9v8.89h-15.7v1.91h15.08v7.05h-15.08v1.87h15.7v8.89h-26.9V30.7z"/>
	<path class="st0" d="M214.35,50.31l13.21-9.47v-0.85h-12.94v-9.3h27.58v8.96l-13.45,9.5v0.82H242v9.33h-27.65V50.31z"/>
	<path class="st0" d="M264.04,59.3l-3.34-6.64h-5.75v6.64h-11.2V30.7h17.3c8.1,0,12.84,3.27,12.84,11.37c0,3.71-1.57,6.37-3.71,8.07
		L275,59.3H264.04z M254.95,44.39h5.24c1.7,0,2.45-0.89,2.45-2.21c0-1.33-0.75-2.21-2.45-2.21h-5.24V44.39z"/>
</g>
<path class="st1" d="M45.57,37.98c-3.88,3.95-3.82,10.29,0.12,14.17c3.95,3.88,10.29,3.82,14.17-0.12
	c3.88-3.95,3.82-10.29-0.12-14.17C55.79,33.97,49.45,34.03,45.57,37.98z"/>
<path class="st2" d="M64.38,27.28h14.88c0.25-0.42,0.2-0.97-0.17-1.33L72,18.98c-0.42-0.42-1.11-0.41-1.53,0.01l-3.72,3.79
	c-2.41-1.53-5.01-2.62-7.7-3.28l-0.05-5.55c-0.01-0.6-0.5-1.08-1.09-1.07l-9.95,0.09c-0.6,0.01-1.08,0.5-1.07,1.09l0.05,5.32
	c-2.71,0.61-5.34,1.64-7.77,3.11l-3.95-3.88c-0.42-0.42-1.11-0.41-1.53,0.01l-6.97,7.1c-0.42,0.42-0.41,1.11,0.01,1.53l3.79,3.72
	c-1.53,2.41-2.62,5.01-3.28,7.7l-5.55,0.05c-0.6,0.01-1.08,0.5-1.07,1.09l0.09,9.95c0.01,0.6,0.5,1.08,1.09,1.07l5.32-0.05
	c0.61,2.71,1.64,5.34,3.11,7.77l-3.88,3.95c-0.42,0.42-0.41,1.11,0.01,1.53l7.1,6.97c0.42,0.42,1.11,0.41,1.53-0.01l3.72-3.79
	c2.41,1.53,5.01,2.62,7.7,3.28l0.05,5.55c0.01,0.6,0.5,1.08,1.09,1.07l9.95-0.09c0.6-0.01,1.08-0.5,1.07-1.09l-0.05-5.32
	c2.71-0.61,5.34-1.64,7.77-3.11l3.95,3.88c0.42,0.42,1.11,0.41,1.53-0.01l6.97-7.1c0.42-0.42,0.41-1.11-0.01-1.53l-0.03-0.03H64.38
	V27.28z M59.86,52.02c-3.88,3.95-10.22,4-14.17,0.12c-3.95-3.88-4-10.22-0.12-14.17c3.88-3.95,10.22-4,14.17-0.12
	C63.68,41.73,63.74,48.08,59.86,52.02z"/>
</svg>
