<svg width="152" height="46" viewBox="0 0 152 46" fill="none" xmlns="http://www.w3.org/2000/svg">
<path d="M35.3981 15.6911H41.1572V30.3089H35.3981V15.6911Z" fill="#171717"/>
<path d="M42.2113 15.6911H49.4257L50.9837 22.7394H51.4054L52.9634 15.6911H60.1777V30.3089H54.6963V25.3818H54.2592L53.2976 30.3089H49.0966L48.135 25.3818H47.6979V30.3089H42.2113V15.6911Z" fill="#171717"/>
<path d="M72.781 28.7245H67.1247L66.6362 30.3089H60.7023L65.9215 15.6911H73.974L79.1932 30.3089H73.2592L72.781 28.7245ZM71.5058 24.5334L70.4362 21.0374H69.4747L68.4051 24.5334H71.5058Z" fill="#171717"/>
<path d="M94.46 30.3089H91.5908L91.5033 28.6376H91.4005C90.3515 29.8898 88.5621 30.7945 86.0784 30.7945C81.5277 30.7945 78.0054 27.7329 78.0054 22.9949C78.0054 18.2416 81.2963 15.1953 86.6029 15.1953C90.2795 15.1953 94.0641 16.9893 94.5012 21.0936H88.7935C88.6701 20.7613 87.9553 20.1173 86.7469 20.1173C84.942 20.1173 83.7337 21.1805 83.7337 22.9898C83.7337 24.7991 84.9935 25.8622 86.5515 25.8622C86.8138 25.8622 88.4232 25.9338 88.9323 24.5896H86.3921V21.9778H94.4652V30.3089H94.46Z" fill="#171717"/>
<path d="M95.6016 15.6911H109.434V20.2349H101.361V21.2111H109.115V24.8145H101.361V25.7702H109.434V30.314H95.6016V15.6911Z" fill="#171717"/>
<path d="M110.221 25.714L117.013 20.8738V20.4393H110.359V15.686H124.541V20.2656L117.625 25.1211V25.5402H124.438V30.3089H110.221V25.714Z" fill="#171717"/>
<path d="M135.772 30.3089L134.054 26.9151H131.097V30.3089H125.338V15.6911H134.234C138.399 15.6911 140.837 17.3625 140.837 21.5025C140.837 23.3987 140.029 24.7582 138.929 25.6271L141.407 30.3089H135.772ZM131.097 22.6882H133.792C134.666 22.6882 135.052 22.2334 135.052 21.5587C135.052 20.8789 134.666 20.4291 133.792 20.4291H131.097V22.6882Z" fill="#171717"/>
<path d="M23.4325 19.412C21.4373 21.4309 21.4682 24.6713 23.4942 26.6545C25.5253 28.6376 28.7854 28.6069 30.7805 26.5931C32.7756 24.5742 32.7448 21.3338 30.7188 19.3507C28.6877 17.3625 25.4276 17.3931 23.4325 19.412Z" fill="#D9D9D9"/>
<path d="M33.1047 13.9431H40.7562C40.8847 13.7284 40.859 13.4473 40.6687 13.2633L37.023 9.70089C36.807 9.48623 36.4522 9.49134 36.2363 9.70601L34.3234 11.6431C33.0842 10.8611 31.7472 10.304 30.364 9.96667L30.3383 7.13001C30.3332 6.82334 30.0812 6.57801 29.7778 6.58312L24.6614 6.62912C24.3529 6.63423 24.1061 6.88467 24.1112 7.18623L24.1369 9.90534C22.7434 10.2171 21.3911 10.7436 20.1415 11.4949L18.1104 9.51178C17.8945 9.29712 17.5397 9.30223 17.3237 9.51689L13.7397 13.1458C13.5237 13.3604 13.5288 13.7131 13.7448 13.9278L15.6936 15.8291C14.9069 17.0609 14.3464 18.3898 14.007 19.7647L11.1532 19.7902C10.8447 19.7953 10.5978 20.0458 10.603 20.3473L10.6493 25.4329C10.6544 25.7396 10.9064 25.9849 11.2097 25.9798L13.9453 25.9542C14.259 27.3393 14.7886 28.6836 15.5445 29.9256L13.5494 31.9444C13.3334 32.1591 13.3386 32.5118 13.5545 32.7264L17.2054 36.2889C17.4214 36.5036 17.7762 36.4984 17.9922 36.2838L19.905 34.3467C21.1443 35.1287 22.4812 35.6858 23.8644 36.0231L23.8901 38.8598C23.8953 39.1664 24.1472 39.4118 24.4506 39.4067L29.567 39.3607C29.8755 39.3556 30.1223 39.1051 30.1172 38.8036L30.0915 36.0844C31.485 35.7727 32.8374 35.2462 34.0869 34.4949L36.118 36.478C36.334 36.6927 36.6888 36.6876 36.9047 36.4729L40.4888 32.844C40.7047 32.6293 40.6996 32.2767 40.4836 32.062L40.4682 32.0467H33.1047V13.9431ZM30.7805 26.588C28.7854 28.6069 25.5253 28.6324 23.4942 26.6493C21.4631 24.6662 21.4374 21.4258 23.4325 19.4069C25.4276 17.388 28.6877 17.3624 30.7188 19.3456C32.7448 21.3287 32.7757 24.5742 30.7805 26.588Z" fill="#00B67A"/>
</svg>
